HIERARCHY
ROOT root
{
	OFFSET 0.000000 0.000000 0.000000
	CHANNELS 6 Xposition Yposition Zposition Zrotation Yrotation Xrotation
	JOINT lhip
	{
		OFFSET 0.058581 -0.082280 -0.017664
		CHANNELS 3 Zrotation Yrotation Xrotation
		JOINT lknee
		{
			OFFSET 0.043451 -0.386469 0.008037
			CHANNELS 3 Zrotation Yrotation Xrotation
			JOINT lankle
			{
				OFFSET -0.014790 -0.426874 -0.037428
				CHANNELS 3 Zrotation Yrotation Xrotation
				JOINT ltoe
				{
					OFFSET 0.041054 -0.060286 0.122042
					CHANNELS 3 Zrotation Yrotation Xrotation
					End Site
					{
						OFFSET 0.000000 0.000000 0.000000
					}
				}
			}
		}
	}
	JOINT rhip
	{
		OFFSET -0.060310 -0.090513 -0.013543
		CHANNELS 3 Zrotation Yrotation Xrotation
		JOINT rknee
		{
			OFFSET -0.043257 -0.383688 -0.004843
			CHANNELS 3 Zrotation Yrotation Xrotation
			JOINT rankle
			{
				OFFSET 0.019056 -0.420046 -0.034562
				CHANNELS 3 Zrotation Yrotation Xrotation
				JOINT rtoe
				{
					OFFSET -0.034840 -0.062106 0.130323
					CHANNELS 3 Zrotation Yrotation Xrotation
					End Site
					{
						OFFSET 0.000000 0.000000 0.000000
					}
				}
			}
		}
	}
	JOINT lowerback
	{
		OFFSET 0.004439 0.124404 -0.038385
		CHANNELS 3 Zrotation Yrotation Xrotation
		JOINT upperback
		{
			OFFSET 0.004488 0.137956 0.026820
			CHANNELS 3 Zrotation Yrotation Xrotation
			JOINT chest
			{
				OFFSET -0.002265 0.056032 0.002855
				CHANNELS 3 Zrotation Yrotation Xrotation
				JOINT lowerneck
				{
					OFFSET -0.013390 0.211636 -0.033468
					CHANNELS 3 Zrotation Yrotation Xrotation
					JOINT upperneck
					{
						OFFSET 0.010113 0.088937 0.050410
						CHANNELS 3 Zrotation Yrotation Xrotation
						End Site
						{
							OFFSET 0.000000 0.000000 0.000000
						}
					}
				}
				JOINT lclavicle
				{
					OFFSET 0.071702 0.114000 -0.018898
					CHANNELS 3 Zrotation Yrotation Xrotation
					JOINT lshoulder
					{
						OFFSET 0.122921 0.045205 -0.019046
						CHANNELS 3 Zrotation Yrotation Xrotation
						JOINT lelbow
						{
							OFFSET 0.255332 -0.015649 -0.022946
							CHANNELS 3 Zrotation Yrotation Xrotation
							JOINT lwrist
							{
								OFFSET 0.265709 0.012698 -0.007375
								CHANNELS 3 Zrotation Yrotation Xrotation
								End Site
								{
									OFFSET 0.000000 0.000000 0.000000
								}
							}
						}
					}
				}
				JOINT rclavicle
				{
					OFFSET -0.082954 0.112472 -0.023707
					CHANNELS 3 Zrotation Yrotation Xrotation
					JOINT rshoulder
					{
						OFFSET -0.113228 0.046853 -0.008472
						CHANNELS 3 Zrotation Yrotation Xrotation
						JOINT relbow
						{
							OFFSET -0.260127 -0.014369 -0.031269
							CHANNELS 3 Zrotation Yrotation Xrotation
							JOINT rwrist
							{
								OFFSET -0.269108 0.006794 -0.006027
								CHANNELS 3 Zrotation Yrotation Xrotation
								End Site
								{
									OFFSET 0.000000 0.000000 0.000000
								}
							}
						}
					}
				}
			}
		}
	}
}
MOTION
Frames: 11
Frame Time: 0.033333
0.297280 0.200699 1.007299 -6.270684 -0.911716 85.233231 1.287299 -3.014228 -16.950575 -4.181188 4.907378 39.402426 2.579593 10.292277 -23.729218 0.000000 -0.000000 0.000000 2.405479 -2.164425 -1.009025 -0.890202 0.089794 14.122748 2.492116 -5.864662 -10.951916 0.000000 -0.000000 0.000000 -0.205505 3.385309 11.321327 4.027360 -4.820010 1.190022 1.702015 -1.936510 1.116084 3.251660 0.918569 4.575206 -0.320822 -2.404114 9.198354 -19.405014 -12.939054 -0.014043 -50.316766 -22.010911 14.988591 13.003029 -64.776354 15.462189 -4.483632 -11.943621 -1.101681 18.146574 12.557294 -1.623204 40.775716 17.923230 11.579127 -17.472394 50.946447 1.343097 10.836774 6.738652 -8.650133 
0.297916 0.175326 1.005323 -6.944983 -1.053717 85.478923 1.577944 -3.058200 -18.531504 -3.448411 4.641376 32.143034 2.637696 10.258710 -23.489635 0.000000 -0.000000 0.000000 1.983999 -2.509356 0.259576 -0.901994 0.816710 14.463365 2.740878 -5.696985 -12.486553 0.000000 -0.000000 0.000000 -0.215296 3.839761 11.413527 3.649526 -4.604652 1.052922 1.632070 -1.634359 0.886019 3.225810 1.200402 3.989798 -0.293368 -2.558552 9.677752 -19.357838 -12.836711 -0.262502 -48.010737 -22.133324 13.642106 21.355079 -67.628201 6.111704 -7.988820 -13.225330 -2.852056 17.430945 12.857688 -1.873659 38.051613 18.522289 9.688378 -22.346052 52.187967 -5.079797 14.834813 8.013945 -11.502360 
0.298713 0.150160 1.002453 -7.363033 -1.061742 85.850989 1.860546 -3.069428 -19.632082 -2.945607 3.751788 23.696647 2.428348 9.928828 -21.425850 0.000000 -0.000000 0.000000 1.689132 -2.820279 1.283394 -0.901603 1.406388 14.993791 2.774476 -5.774349 -13.962909 0.000000 -0.000000 0.000000 -0.244335 4.198134 11.414762 3.353930 -4.361098 0.937004 1.556268 -1.366323 0.677284 3.297123 1.469216 3.515036 -0.161225 -2.905508 10.104734 -19.465905 -12.486569 -0.472940 -45.866109 -22.343259 12.419847 30.836757 -68.068352 -6.379530 -9.589655 -14.695174 -7.689818 17.058323 12.955493 -2.320079 35.933823 19.377237 7.668291 -27.815427 50.122140 -14.040178 15.809635 8.903409 -15.248174 
0.299826 0.124543 0.998790 -7.640683 -0.945949 86.285154 2.032005 -2.747032 -20.184460 -2.363494 2.488465 14.565518 1.517109 9.305573 -18.895964 0.000000 -0.000000 0.000000 1.461488 -3.167416 2.294623 -0.880965 1.846350 15.513022 2.874092 -5.892464 -15.250774 0.000000 -0.000000 0.000000 -0.273541 4.457337 11.289565 3.087125 -4.132993 0.897877 1.525297 -1.032398 0.500499 3.363806 1.598871 3.380060 0.058635 -3.334460 10.136441 -19.683846 -12.096357 -0.828549 -44.342586 -22.693790 11.365472 38.931744 -66.114854 -18.710966 -7.052829 -15.087182 -13.810332 16.919060 13.150545 -2.939432 34.491117 20.663766 5.485670 -32.281177 45.374225 -23.840877 12.443799 8.634298 -19.858273 
0.301544 0.097770 0.994339 -7.872049 -0.691382 86.718732 2.156804 -2.170186 -20.462061 -1.789643 1.886562 6.409433 0.381164 8.559261 -17.982365 0.000000 -0.000000 0.000000 1.218485 -3.617544 3.397007 -0.805280 2.119084 15.981747 3.247978 -5.831244 -16.405330 0.000000 -0.000000 0.000000 -0.214502 4.715523 11.090803 2.874945 -3.940206 0.815346 1.532723 -0.664429 0.391483 3.328685 1.503064 3.505306 0.284160 -3.753697 9.978090 -19.802201 -12.020952 -1.337588 -43.900260 -23.369265 10.389054 44.805346 -62.032389 -29.091108 -2.103815 -13.642946 -20.558025 16.787168 13.512177 -3.799325 33.707380 22.410668 3.062407 -36.005949 39.244330 -33.585779 7.584517 7.279272 -24.853664 
0.304047 0.069580 0.989537 -8.160890 -0.453089 87.014779 2.299618 -2.075962 -21.160156 -1.565044 2.557054 2.684050 -0.185046 8.156364 -18.160060 0.000000 -0.000000 0.000000 0.882601 -3.873060 4.566281 -0.822917 2.689788 16.756860 3.728717 -5.548191 -17.502219 0.000000 -0.000000 0.000000 -0.192888 5.166994 10.978987 2.768321 -3.783692 0.653649 1.544885 -0.342223 0.351503 3.124786 1.041072 3.450683 0.494423 -4.048715 10.127047 -19.659242 -12.094709 -2.007556 -44.825003 -24.669642 9.678783 48.791146 -56.526601 -38.499622 1.773664 -11.252712 -29.406516 16.606200 13.688588 -4.826125 33.352637 24.329449 0.826074 -39.537411 33.335203 -43.319347 5.218125 6.267526 -30.957499 
0.307576 0.039461 0.985068 -8.278334 -0.368712 87.076785 2.331104 -3.196637 -22.408080 -1.607905 3.408388 5.063619 0.384001 8.498376 -18.186213 0.000000 -0.000000 0.000000 0.336243 -4.041428 5.809059 -0.844119 3.584802 18.118947 4.269510 -5.367308 -18.322872 0.000000 -0.000000 0.000000 -0.273598 5.819192 10.933079 2.753976 -3.768245 0.573485 1.509295 -0.235327 0.455240 2.831174 0.177009 3.112320 0.677336 -4.249964 10.345601 -19.695839 -12.213224 -2.677300 -45.852899 -26.315301 9.034058 50.802676 -51.374646 -46.184184 4.415149 -9.026468 -37.732468 16.642053 13.492066 -5.610671 32.684944 25.451579 -0.541602 -42.446638 29.930168 -50.350907 3.723438 5.431332 -34.402748 
0.312103 0.007016 0.981825 -8.275293 -0.502834 87.140606 1.738288 -4.733671 -23.185299 -1.629791 3.292255 9.232652 1.456625 8.686000 -16.621628 0.000000 -0.000000 0.000000 -0.328537 -4.041653 6.678338 -1.013629 4.246203 20.368153 5.207835 -5.367347 -18.441385 0.000000 -0.000000 0.000000 -0.569656 6.461053 10.580301 2.771769 -3.759285 0.711314 1.335507 -0.306259 0.643415 2.792782 -0.709615 2.606969 0.789527 -4.630061 10.452399 -20.275643 -12.124510 -3.195875 -45.800002 -27.408755 8.253142 50.817737 -48.356230 -48.731742 6.003929 -8.080809 -38.999438 17.093986 12.905763 -6.038222 31.855332 25.100445 -0.748007 -44.579272 29.709173 -52.506215 2.407574 5.025311 -33.199635 
0.317686 -0.027817 0.981441 -8.223879 -0.959135 87.257454 0.572513 -6.212024 -23.348716 -1.677577 2.307458 12.525801 2.484650 8.536021 -13.379987 0.000000 -0.000000 0.000000 -1.164766 -3.563994 6.828077 -1.301503 4.474977 23.825567 6.596954 -5.572693 -17.085643 0.000000 -0.000000 0.000000 -1.247889 6.868704 9.988938 2.818742 -3.698377 1.061034 1.037279 -0.456470 0.793728 3.059991 -1.535002 2.091568 0.909646 -5.138623 10.234092 -21.200132 -11.392903 -3.521694 -44.961772 -27.289943 8.153729 49.538674 -48.010290 -47.465458 6.359639 -8.259264 -36.384483 17.973992 11.832773 -6.263167 31.601037 23.724409 0.395329 -46.352876 31.726878 -52.770119 2.536873 5.296703 -31.561331 
0.323594 -0.064252 0.984498 -7.704379 -1.418700 87.205689 -0.516090 -7.789997 -22.459322 -2.141959 1.655725 14.488675 4.750097 8.613040 -11.389505 0.000000 -0.000000 0.000000 -2.189739 -3.033437 6.078023 -1.106134 3.961499 29.048646 8.372796 -5.820819 -13.626997 0.000000 -0.000000 0.000000 -1.939567 6.926406 9.491164 2.896029 -3.810397 1.409947 0.754176 -0.663682 0.900719 3.308504 -2.384460 1.885121 1.178335 -5.552542 9.226508 -21.923581 -10.498979 -3.399278 -44.162131 -26.088777 8.368969 46.825867 -49.101393 -44.160150 5.198977 -8.984619 -33.414349 18.776819 10.574730 -6.129092 32.686608 21.622716 2.222292 -48.483073 34.696402 -52.987618 3.958175 5.833581 -29.947170 
0.329534 -0.100296 0.989293 -6.943828 -1.695576 87.075827 -1.919939 -8.199668 -20.412773 -2.597753 0.945501 15.121268 7.266064 8.341658 -11.230003 0.000000 -0.000000 0.000000 -3.232370 -2.479411 3.595382 -0.539692 2.729836 36.496546 10.109556 -6.491729 -6.815213 0.000000 -0.000000 0.000000 -2.562047 6.435085 9.140041 3.082214 -3.687324 1.574978 0.583753 -0.815209 1.018473 3.578458 -3.484319 1.837038 1.434275 -5.609859 7.895311 -22.535059 -9.696917 -2.863370 -43.629984 -24.247781 8.713273 42.168018 -50.416488 -38.326255 3.626747 -9.653179 -29.087213 19.330830 9.312027 -5.658885 34.717619 18.729365 4.497164 -50.756454 38.270204 -52.826207 5.471683 6.302980 -27.516708 
